<?xml version="1.0" encoding="UTF-8" standalone="no"?>
<svg
   xmlns:dc="http://purl.org/dc/elements/1.1/"
   xmlns:cc="http://creativecommons.org/ns#"
   xmlns:rdf="http://www.w3.org/1999/02/22-rdf-syntax-ns#"
   xmlns:svg="http://www.w3.org/2000/svg"
   xmlns="http://www.w3.org/2000/svg"
   viewBox="0 0 720 916.25"
   height="916.25"
   width="720"
   xml:space="preserve"
   version="1.1"
   id="svg2"><metadata
     id="metadata8"><rdf:RDF><cc:Work
         rdf:about=""><dc:format>image/svg+xml</dc:format><dc:type
           rdf:resource="http://purl.org/dc/dcmitype/StillImage" /></cc:Work></rdf:RDF></metadata><defs
     id="defs6" /><g
     transform="matrix(1.25,0,0,-1.25,0,916.25)"
     id="g10"><g
       transform="scale(0.1,0.1)"
       id="g12"><path
         id="path14"
         style="fill:#b3b3b3;fill-opacity:1;fill-rule:nonzero;stroke:none"
         d="M 2850,5093.75 1510.77,4622.45 1722.39,2867.82 2851.42,2247.28 3986.27,2876.23 4197.82,4630.79 2850,5093.75 Z" /><path
         id="path16"
         style="fill:#af2b2d;fill-opacity:1;fill-rule:nonzero;stroke:none"
         d="m 4064.25,4529.39 -1217.38,415.13 0,-2548.98 1020.22,564.62 197.16,1569.23 z" /><path
         id="path18"
         style="fill:#df2e31;fill-opacity:1;fill-rule:nonzero;stroke:none"
         d="m 1661.05,4521.89 181.34,-1569.22 1004.47,-557.13 0,2549.03 -1185.81,-422.68 z" /><path
         id="path20"
         style="fill:#f2f2f2;fill-opacity:1;fill-rule:nonzero;stroke:none"
         d="m 3129.05,3676.7 -279.96,584.64 -246.47,-584.64 526.43,0 z m 106.74,-245.83 -742.11,0 -166.02,-415.26 -308.82,-5.71 828.04,1842.06 856.9,-1842.06 -286.23,0 -181.76,420.97 z" /><path
         id="path22"
         style="fill:#b3b3b3;fill-opacity:1;fill-rule:nonzero;stroke:none"
         d="m 2846.87,4851.96 2.21,-590.62 279.67,-585.09 -281.25,0 -0.63,-245 388.9,-0.38 181.77,-421.04 295.49,-5.48 -866.16,1847.61 z" /></g></g></svg>