<?xml version="1.0" encoding="UTF-8" standalone="no"?>
<!-- Created with Inkscape (http://www.inkscape.org/) -->

<!-- viewBox fix by in[k]firmary (http://inkfirmary.48design.de) -->
<svg
   xmlns:dc="http://purl.org/dc/elements/1.1/"
   xmlns:cc="http://creativecommons.org/ns#"
   xmlns:rdf="http://www.w3.org/1999/02/22-rdf-syntax-ns#"
   xmlns:svg="http://www.w3.org/2000/svg"
   xmlns="http://www.w3.org/2000/svg"
   xmlns:sodipodi="http://sodipodi.sourceforge.net/DTD/sodipodi-0.dtd"
   xmlns:inkscape="http://www.inkscape.org/namespaces/inkscape"
   id="svg2"
   version="1.1"
   inkscape:version="0.47 r22583"
   width="100%"
   height="100%"
   xml:space="preserve"
   sodipodi:docname="Logo jQuery.pdf"
   viewBox="0 0 1194 536"><defs
     id="defs6" /><sodipodi:namedview
     pagecolor="#ffffff"
     bordercolor="#666666"
     borderopacity="1"
     objecttolerance="10"
     gridtolerance="10"
     guidetolerance="10"
     inkscape:pageopacity="0"
     inkscape:pageshadow="2"
     inkscape:window-width="1680"
     inkscape:window-height="1000"
     id="namedview4"
     showgrid="false"
     inkscape:zoom="0.34263606"
     inkscape:cx="1334.4852"
     inkscape:cy="92.233937"
     inkscape:window-x="-8"
     inkscape:window-y="-8"
     inkscape:window-maximized="1"
     inkscape:current-layer="svg2" /><g
     id="g12"
     inkscape:groupmode="layer"
     inkscape:label="Logo jQuery"
     transform="matrix(1.25,0,0,-1.25,225.50677,750.09016)"><path
       id="background"
       style="fill:#1e2e3b;fill-opacity:1;stroke:none"
       d="m -180.40542,600.07213 0,-429.35885 955.72392,0 0,429.35885 -955.72392,0 z" /><path
       style="fill:#21ace2;fill-opacity:1;fill-rule:nonzero;stroke:none"
       d="m -27.255416,472.14713 -4.2,-5.775 c -5.61384,-8.262 -6.14484,-18.52399 -2.25,-27.65 4.1052,-9.684 12.50276,-17.3 22.325,-20.9 0.405,-0.1524 0.81712,-0.28939 1.225,-0.425 l 0.55,-0.175 c 0.58272,-0.1812 1.15096,-0.386 1.75,-0.5 27.14976,-5.244 34.5166,13.9228 36.475,16.75 -6.4524,-9.2892 -17.29776,-11.5054 -30.6,-8.275 -1.04568,0.252 -2.1932,0.6186 -3.2,0.975 -1.30452,0.4668 -2.58192,1 -3.825,1.6 -2.3634,1.1328 -4.61164,2.5232 -6.7,4.1 -11.901,9.03 -19.3134,26.2446 -11.55,40.275 z m -30.8,-6.725 -7.775,-10.975 c -9.52452,-13.704 -9.00132,-32.05519 -1.575,-46.55 1.24644,-2.4312 2.63952,-4.7786 4.2,-7.025 1.42776,-2.0436 3.03404,-4.4846 4.925,-6.125 0.68952,-0.7572 1.3966,-1.4966 2.125,-2.225 l 0.575,-0.55 c 0.70872,-0.69 1.4268,-1.365 2.175,-2.025 l 0.07496,-0.075 0.02496,-0.025 c 0.82548,-0.7224 1.6824,-1.4136 2.55,-2.1 l 0.575,-0.45 c 0.87096,-0.6672 1.76564,-1.326 2.675,-1.95 l 0.07496,-0.075 c 0.3984,-0.2784 0.82048,-0.5348 1.225,-0.8 l 0.575,-0.375 c 0.65064,-0.4176 1.30804,-0.8124 1.975,-1.2 l 0.275,-0.175 c 0.5766,-0.33 1.1608,-0.6582 1.75,-0.975 l 0.625,-0.325 c 0.40788,-0.21 0.81388,-0.421 1.225,-0.625 l 0.175,-0.1 c 0.83808,-0.414 1.689,-0.797 2.55,-1.175 l 0.575,-0.225 c 0.69276,-0.2916 1.3724,-0.5848 2.075,-0.85 0.29772,-0.1128 0.59856,-0.2182 0.9,-0.325 0.6342,-0.2364 1.28096,-0.4578 1.925,-0.675 0.2916,-0.0936 0.58724,-0.1838 0.875,-0.275 0.91644,-0.2844 1.82352,-0.6416 2.775,-0.8 49.17096,-8.14572 60.52512,29.69988 60.52512,29.69988 -10.2336,-14.7408 -30.05564,-21.7662 -51.2,-16.275 -0.94212,0.246 -1.8808,0.5084 -2.8,0.8 l -0.825,0.275 c -0.65388,0.2124 -1.30272,0.4422 -1.95,0.675 -0.29484,0.1104 -0.5834,0.2122 -0.875,0.325 -0.70548,0.2688 -1.41048,0.556 -2.1,0.85 l -0.575,0.225 c -0.86112,0.3816 -1.7082,0.7824 -2.55,1.2 -0.43356,0.21 -0.87256,0.4328 -1.3,0.65 l -0.725,0.375 c -0.5508,0.2988 -1.11276,0.6106 -1.65,0.925 l -0.375,0.225 c -0.66708,0.3924 -1.32724,0.7848 -1.975,1.2 l -0.6,0.4 c -0.42756,0.2784 -0.85728,0.5644 -1.275,0.85 -0.90936,0.6252 -1.7824,1.2888 -2.65,1.95 l -0.6,0.45 c -9.2592,7.3044 -16.60692,17.3006 -20.1,28.625 -3.65532,11.7456 -2.86112,24.9246 3.475,35.625 z m -38.375,-13.875 -10.275004,-13.05 c -13.17,-18.9264 -11.53387,-43.5594 -1.475,-63.675 0.23952,-0.4788 0.50064,-0.9522 0.75,-1.425 0.15852,-0.3048 0.28824,-0.606 0.45,-0.9 l 0.3,-0.525 c 0.17148,-0.3204 0.35016,-0.6142 0.525,-0.925 0.31728,-0.5532 0.64788,-1.1028 0.975,-1.65 0.18144,-0.3012 0.34068,-0.5988 0.525,-0.9 0.366,-0.5856 0.74628,-1.1704 1.125,-1.75 l 0.475,-0.725 c 0.52776,-0.78359 1.07468,-1.5546 1.625,-2.325 l 0.025,-0.075 0.275,-0.375 c 0.47916,-0.6612 0.97664,-1.3068 1.475004,-1.95 l 0.55,-0.7 c 0.44664,-0.5604 0.91516,-1.1182 1.375,-1.675 l 0.5,-0.625 c 0.6216,-0.7284 1.25596,-1.4408 1.9,-2.15 l 0.05,-0.05 0.07496,-0.075 c 0.62808,-0.6864 1.27436,-1.3542 1.925,-2.025 l 0.6,-0.625 c 0.5082,-0.5076 1.03196,-1.002 1.55,-1.5 l 0.62504,-0.60008 c 0.69336,-0.6504 1.3842,-1.301 2.1,-1.925 l 0.05,-0.025 0.35,-0.325 c 0.6282,-0.5436 1.2776,-1.0696 1.925,-1.6 l 0.775,-0.625 c 0.52452,-0.4212 1.05952,-0.842 1.6,-1.25 l 0.85,-0.65004 c 0.59256,-0.4368 1.19772,-0.8824 1.8,-1.3 l 0.65,-0.45 0.175,-0.125 c 0.57324,-0.3912 1.1674,-0.7708 1.75,-1.15 l 0.75,-0.5 c 0.89664,-0.5664 1.80532,-1.1338 2.725,-1.675 l 0.75,-0.425 c 0.6768,-0.3888 1.33884,-0.778 2.025,-1.15 0.37224,-0.2016 0.77452,-0.3806 1.15,-0.575 0.48564,-0.2556 0.955,-0.5004 1.45,-0.75 l 0.35,-0.175 0.575,-0.275 c 0.76692,-0.366 1.54452,-0.7282 2.325,-1.075 l 0.5,-0.225 c 0.89016,-0.3924 1.79016,-0.7662 2.7,-1.125 l 0.65,-0.25 c 0.84468,-0.324 1.69548,-0.6512 2.55,-0.95 l 0.325,-0.125 c 0.94224,-0.3264 1.89468,-0.6274 2.85,-0.925 l 0.675,-0.2 c 0.97128,-0.2952 1.9242,-0.6402 2.925,-0.825 63.6876,-11.616 82.2,38.275 82.2,38.275 -15.5328,-20.244 -43.11676,-25.5948 -69.25,-19.65 -0.99048,0.2232 -1.95984,0.543 -2.925,0.825 l -0.725,0.225 c -0.94224,0.288 -1.87048,0.5784 -2.8,0.9 l -0.375,0.15 c -0.83196,0.2904 -1.65936,0.607 -2.475,0.925 l -0.7,0.275 c -0.9,0.3564 -1.7942,0.7148 -2.675,1.1 l -0.55,0.225 c -0.75756,0.3432 -1.49904,0.6912 -2.25,1.05 l -0.65,0.325 c -0.58596,0.282 -1.1484,0.5738 -1.725,0.875 -0.39132,0.2004 -0.78968,0.415 -1.175,0.625 -0.70596,0.3828 -1.40724,0.773 -2.1,1.175 l -0.7,0.375 c -0.92292,0.54 -1.82836,1.1074 -2.725,1.675 l -0.725,0.5 c -0.65064,0.4212 -1.30872,0.837 -1.95,1.275 l -0.6,0.45 c -0.62484,0.4368 -1.2476,0.875 -1.85,1.325 l -0.8,0.6 c -0.55368,0.4236 -1.10292,0.8608 -1.65,1.3 l -0.75,0.6 c -0.69612,0.57 -1.37032,1.1358 -2.05,1.725 l -0.225,0.175 c -0.73176,0.6444 -1.46292,1.315 -2.175,1.975 l -0.6,0.6 c -0.52452,0.5016 -1.03868,1.0066 -1.55,1.525 l -0.625,0.6 c -0.64776,0.6648 -1.27852,1.3422 -1.9,2.025 l -0.1,0.1 c -0.65712,0.7212 -1.29356,1.456 -1.925,2.2 l -0.5,0.6 c -0.47304,0.5664 -0.9434,1.1478 -1.4,1.725 l -0.5,0.625 c -0.5508,0.7092 -1.10708,1.4312 -1.625,2.15 -14.507404,19.788 -19.721444,47.0876 -8.125,69.5 z"
       id="signet" /><path
       style="fill:#ffffff;fill-opacity:1;fill-rule:nonzero;stroke:none"
       d="m 217.39458,486.69713 c -47.6952,0 -68.4194,-34.343 -76.325,-71.675 -7.8996,-37.6032 2.4534,-70.5712 49.875,-70.3 l 37.425,0.125 34.95,0.125 c 1.3464,0.0108 2.7318,1.0766 3.075,2.375 l 6.1,23.25 c 0.3408,1.3044 -0.5036,2.369 -1.85,2.375 l -5.825,0.025 -5.85,0.05 c -1.146,0.006 -1.7868,0.741 -1.65,1.725 l 0.15,0.55 c 0,0 13.1976,32.072 16.2,50.6 4.0884,24.8028 -8.3122,60.775 -56.275,60.775 z m 492.3,-13.725 -7.7,-0.05 c -1.3464,-0.01 -3.5524,-0.025 -4.9,-0.025 l -20.37504,0 c -1.34632,0 -3.06416,-0.915 -3.82496,-2.025 l -45.07504,-66 c -0.7608,-1.1172 -1.62376,-0.9616 -1.92496,0.35 l -3.3,14.55 c -0.2976,1.31761 -1.6536,2.375 -3,2.375 l -28.975,0 c -1.35,0 -2.141,-1.0552 -1.775,-2.35 l 12.975,-45.475 c 0.3684,-1.296 0.4086,-3.42061 0.075,-4.725 l -5.675,-22 c -0.3372,-1.3116 0.5024,-2.375 1.85,-2.375 l 28.62504,0 c 1.34392,0 2.74128,1.0634 3.07496,2.375 l 5.65,22 c 0.33368,1.30439 1.26264,3.2498 2.07504,4.325 l 73.17504,97.1 c 0.8124,1.0716 0.37128,1.95601 -0.97504,1.95 z m -248.625,-14.625 c -47.1468,0 -58.3074,-28.6184 -64.575,-57.5 -6.2676,-29.4384 -5.736,-56.95 43.05,-56.95 l 1.75,0 0.45,0 3.15,0 0.575,0 c 0.486,0 0.983,0 1.475,0 l 0.35,0 c 1.9308,0.004 3.8844,0.0178 5.85,0.025 l 0.1,0 c 12.8856,0.048 25.7894,0.15439 31.025,0.2 1.3404,0.0192 2.6502,1.092 2.925,2.4 l 1.975,9.65 0.4,1.875 2.35,11.525 c 0.2724,1.3176 -0.625,2.4 -1.975,2.4 l -43.85,0 c -17.4432,0 -22.6318,4.62281 -20.725,18.25 l 70.125,0 0.05,0 c 1.1136,0.0192 2.142,0.805 2.55,1.825 l 0.175,0.6 -0.025,0 c 10.4112,39.2652 7.4218,65.7 -37.175,65.7 z m -247.625,-0.925 c 26.31919,0.75601 31.4867,-18.81609 24.8,-41.3 l -0.675,-2.35 0,-0.025 -5.275,-18.75 -5.3,-18.75 c -0.3684,-1.2948 -1.775,-2.375 -3.125,-2.375 l -28,0 c -21.2544,0 -26.4518,16.6292 -21.275,41.15 5.1732,25.0776 15.3292,40.6708 36.25,42.25 0.89336,0.0673 1.751,0.12561 2.6,0.15 z m -106.75,-0.4 c -1.3464,0 -2.7024,-1.08959 -3,-2.4 l -2.525,-11.15 -2.524996,-11.15 c -0.3,-1.3104 0.5536,-2.4 1.899996,-2.4 l 26.85,0 c 1.35,0 2.6858,1.086 2.975,2.4 l 2.45,11.15 2.45,11.15 c 0.288,1.31761 -0.5786,2.4 -1.925,2.4 l -26.65,0 z m 194.375,-0.3 c -1.3476,0 -2.6776,-1.086 -2.95,-2.4 l -5.35,-25.4 -5.375,-25.4 0,-0.025 -0.5,-2.375 c -6.1668,-28.1568 -4.5208,-55.0112 29,-55.85 0.5484,-0.0156 0.975,0 0.975,0 l 52.6,0 c 1.3464,0 2.668,1.0788 2.95,2.4 l 11.35,53.325 11.35,53.325 c 0.2784,1.3176 -0.6024,2.4 -1.95,2.4 l -24.25,0 c -1.3464,0 -2.687,-1.086 -2.975,-2.4 l -8.6,-39.825 -8.625,-39.85 c -0.2844,-1.31401 -1.606,-2.4 -2.95,-2.4 l -17.175,0 c -16.9896,0 -15.0312,11.7532 -11.55,27.85 l 0.1,0.475 0.375,2.05 0.075,0.375 0.775,4.125 0.825,4.425 c 0.2532,1.33319 0.6504,3.2974 0.9,4.525 l 3.925,19.125 3.9,19.125 c 0.2688,1.3176 -0.6036,2.4 -1.95,2.4 l -24.9,0 z m 229.725,-0.275 c -1.3464,0 -2.6966,-1.0824 -2.975,-2.4 l -0.975,-4.675 -1.175,-5.55 -0.325,-1.55 -10.1,-47.3 -9.6,-44.925 c -0.2844,-1.3176 -0.3644,-2.94 -0.2,-3.6 0.1632,-0.6576 2.7274,-1.175 4.075,-1.175 l 20.25,0 c 1.35,0 3.0406,0.2274 3.775,0.525 0.7356,0.2976 1.83,2.9538 2.1,4.275 l 3.6,17.775 3.6,17.8 0,0.025 0.475,2.375 4.375,20.45 3.85,18.05 c 0.2844,1.3116 1.6072,2.3726 2.95,2.375 l 63.675,0.025 c 1.3428,0.006 2.1834,1.0848 1.875,2.4 l -1.1,4.6 -1.1,4.7 -0.575,2.4 c -2.1816,8.47568 -8.5742,13.35008 -22.475,13.35008 l -21.65,0.025 -19.925,0.025 -22.425,0 z m -75.975,-24.8 c 15.1188,0 18.051,-7.37099 17.025,-15.675 -0.18045,-1.44641 -1.51014,-2.525 -2.85,-2.525 l -36.725,0 c -1.2696,0 -1.9384,0.863 -1.75,1.925 l 0.025,0.075 0.025,0.125 c 0,0 0.0528,0.25899 0.15,0.625 3.5088,9.3276 10.6708,15.45 24.1,15.45 z m -356.074996,-9.325 c -1.3464,0 -2.681,-1.0848 -2.975,-2.4 l -3.775,-16.7 -3.775,-16.7 c -0.2988,-1.3152 -0.7716,-3.47879 -1.05,-4.8 l -3.625,-17.05 -3.625,-17.05 c -0.282,-1.3152 -0.8656,-3.4494 -1.3,-4.725 0,0 -5.0164,-14.918 -13.45,-14.75 -0.3564,0.0108 -0.7008,-0.007 -1.05,0 -4.08,0.0768 -7.3,0.15 -7.3,0.15 -1.3464,0.0192 -2.6892,-1.042 -3,-2.35 l -2.8,-11.7 -2.775,-11.7 c -0.3108,-1.3068 0.5358,-2.3998 1.875,-2.425 4.776,-0.0552 15.4866,-0.175 21.975,-0.175 21.0624,0 32.177996,11.6894 39.299996,45.275 l 8.325,38.55 7.825,36.15 c 0.288,1.3152 -0.6024,2.4 -1.95,2.4 l -26.849996,0 z"
       id="jQuery" /><path
       style="fill:#21ace2;fill-opacity:1;fill-rule:nonzero;stroke:none"
       d="m 305.7865,319.3595 c -2.1684,0 -3.9048,-0.6558 -4.5,-3.375 -0.5448,-2.7168 0.8728,-3.375 3.1,-3.375 2.1756,0 3.9064,0.7134 4.45,3.375 0.5988,2.7192 -0.8708,3.375 -3.05,3.375 z m 56.425,-0.975 -1.05,-4.725 3.5,-0.825 -3.55,-16.525 -0.975,-8.7 5,0 6.575,30.775 -9.5,0 z m 118.575,0 -2.775,-9.4 c 0,0 -3.3754,1.25 -5.875,1.25 -6.9024,0 -9.5996,-5.5558 -10.85,-11.425 -1.2528,-5.76 -0.9314,-11.45 6.025,-11.45 2.7132,0 6.725,1.725 6.725,1.725 l 0.65,-1.4 4.575,-0.075 0.6,2.9 5.925,27.875 -5,0 z m -165.9,-2.875 -2.075,-5.6 -3.65,0 -1.025,-4.75 3.475,-0.75 -1.725,-8.325 c -1.1424,-5.274 -1.214,-8.8 5.2,-8.8 1.6344,0 5.45,1.15 5.45,1.15 l 0.85,4.45 -4.175,0 c -2.0688,0 -2.0634,0.666 -1.575,3 l 1.8,8.475 6.25,0.75 1.025,4.8 -6.1,0 1.2,5.6 -4.925,0 z m 23.025,-5.35 c -9.402,0 -11.6258,-5.6864 -12.875,-11.45 -1.2492,-5.8728 -1.1534,-11.35 8.575,-11.35 3.9108,0 9.2,1.45 9.2,1.45 l 0.85,4.15 -8.725,0 c -3.48,0 -4.5352,0.9058 -4.15,3.625 l 14.4,0 c 2.2308,8.0976 1.803,13.575 -7.275,13.575 z m 46.525,0 c -9.4008,0 -11.6222,-5.6864 -12.875,-11.45 -1.2492,-5.8728 -1.1534,-11.35 8.575,-11.35 3.9108,0 9.175,1.45 9.175,1.45 l 0.875,4.15 -8.75,0 c -3.4764,0 -4.5042,0.9058 -4.125,3.625 l 14.4,0 c 2.2272,8.0976 1.797,13.575 -7.275,13.575 z m 229.175,0 c -9.402,0 -11.6472,-5.6864 -12.9,-11.45 -1.2468,-5.8728 -1.1248,-11.35 8.6,-11.35 3.912,0 9.175,1.45 9.175,1.45 l 0.875,4.15 -8.75,0 c -3.48,0 -4.5006,0.9058 -4.125,3.625 l 14.4,0 c 2.2308,8.0976 1.79576,13.575 -7.275,13.575 z m -76.9,-0.05 c -2.4996,0 -5.6,-1.625 -5.6,-1.625 l -0.725,1.35 -4.55,0 -4.725,-22.225 5.8,0 3.6,16.7 2.175,0 c 3.4152,0 2.9818,-2.386 2.275,-5.65 l -0.475,-2.45 -1,-8.6 5.075,0 2.325,11.1 c 0.4344,2.0112 0.7592,3.9164 0.65,5.6 l 2.675,0 c 3.4248,0 2.9842,-2.386 2.275,-5.65 l -0.5,-2.45 -0.975,-8.6 5.05,0 2.35,11.1 c 1.2492,5.7636 1.448,11.4 -5.5,11.4 -2.2308,0 -5.3116,-1.3548 -6.4,-1.95 -0.4884,1.0848 -1.8992,1.95 -3.8,1.95 z m -246.95,-0.05 c -2.6028,0 -5.25,-1.575 -5.25,-1.575 l -0.6,1.3 -4.625,0 -0.6,-2.825 -4.125,-19.35 5.05,0 2.65,8.55 1.75,8.15 2.725,0 c 1.794,0 2.0108,-0.6688 1.25,-4.15 l 5.7,0 c 1.1976,5.7072 1.6202,9.9 -3.925,9.9 z m 117.325,0 c -6.5784,0 -10.1502,-3.3606 -11.025,-7.275 -0.5952,-2.8776 -0.175,-5.775 -0.175,-5.775 l 11.525,-0.85 -0.25,-1.425 c -0.2208,-0.9768 -0.7168,-1.95 -4.3,-1.95 l -8.1,0 -0.925,-4.3 c 0,0 5.2622,-1.25 8.525,-1.25 6.5748,0 10.223,3.5898 10.925,7.125 0.492,2.118 0.425,5.875 0.425,5.875 l -11.725,0.85 0.225,1.1 c 0.2688,1.1976 0.654,2.325 4.35,2.325 1.7364,0 8.075,0.075 8.075,0.075 l 0.975,4.275 c 0,0 -5.2646,1.2 -8.525,1.2 z m 21.85,0 c -6.5784,0 -10.1538,-3.3606 -11.025,-7.275 -0.5952,-2.8776 -0.175,-5.775 -0.175,-5.775 l 11.525,-0.85 -0.275,-1.425 c -0.216,-0.9768 -0.6918,-1.95 -4.275,-1.95 l -8.1,0 -0.925,-4.3 c 0,0 5.2682,-1.25 8.525,-1.25 6.5784,0 10.2218,3.5898 10.925,7.125 0.492,2.118 0.425,5.875 0.425,5.875 l -11.725,0.85 0.2,1.1 c 0.2748,1.1976 0.6564,2.325 4.35,2.325 1.7388,0 8.1,0.075 8.1,0.075 l 0.975,4.275 c 0,0 -5.2646,1.2 -8.525,1.2 z m 70.1,0 c -8.9676,0 -12.121,-5.536 -13.375,-11.35 -1.194,-5.8176 -0.4676,-11.425 8.5,-11.425 8.9652,0 12.1008,5.5006 13.35,11.425 1.2528,5.814 0.435,11.35 -8.475,11.35 z m 70.275,0 c -8.9688,0 -12.1258,-5.536 -13.375,-11.35 -1.194,-5.8176 -0.4962,-11.425 8.475,-11.425 8.964,0 12.1258,5.5006 13.375,11.425 1.2504,5.814 0.4362,11.35 -8.475,11.35 z m 25.375,0 c -2.6124,0 -5.275,-1.575 -5.275,-1.575 l -0.6,1.3 -4.6,0 -0.625,-2.825 -4.125,-19.35 5.05,0 2.675,8.55 1.75,8.15 2.7,0 c 1.7904,0 2.0108,-0.6688 1.25,-4.15 l 5.7,0 c 1.194,5.7072 1.6392,9.9 -3.9,9.9 z m -350.125,-0.225 -0.925,-4.4 0.2,-17.825 8.375,0 6.35,16.2 -0.7,-16.2 8.65,0 7.825,17.825 0.925,4.4 -5.175,0 -6.525,-17.825 0.6,17.825 -8.25,0 -6.575,-17.6 1.15,17.6 -5.925,0 z m 52.65,0 -0.975,-4.725 3.475,-0.75 -1.75,-8.05 -0.975,-8.7 5,0 4.725,22.225 -9.5,0 z m 39.45,-5 c 3.3156,0 3.703,-1.6758 3.325,-3.525 l -8.375,-0.7 c 0.5928,2.7132 2.116,4.225 5.05,4.225 z m 46.525,0 c 3.3156,0 3.6994,-1.6758 3.325,-3.525 l -8.375,-0.7 c 0.5988,2.7132 2.11,4.225 5.05,4.225 z m 229.175,0 c 3.3156,0 3.6816,-1.6758 3.3,-3.525 l -8.35,-0.7 c 0.5952,2.7132 2.1172,4.225 5.05,4.225 z m -114.525,-0.25 c 4.4028,0 4.6394,-2.5054 3.875,-5.875 -0.7548,-3.5904 -2.0762,-5.925 -6.425,-5.925 -4.182,0 -4.5056,2.3922 -3.8,5.925 0.7608,3.4776 2.1152,5.875 6.35,5.875 z m 70.275,0 c 4.4028,0 4.6108,-2.5054 3.85,-5.875 -0.7572,-3.5904 -2.0524,-5.925 -6.4,-5.925 -4.1832,0 -4.5056,2.3922 -3.8,5.925 0.762,3.4776 2.1092,5.875 6.35,5.875 z m -95.7,-0.225 4.575,0 -2.5,-11.25 -4.525,0 c -3.2604,0 -3.4608,2.112 -2.7,5.7 0.7632,3.5868 1.8896,5.55 5.15,5.55 z m 154.775,-10.375 c -2.286,0 -3.98144,-0.6558 -4.52504,-3.375 -0.5952,-2.664 0.814,-3.325 3.1,-3.325 2.1204,0 3.87264,0.715 4.47504,3.325 0.54,2.7192 -0.9332,3.375 -3.05,3.375 z m -185.525,-0.125 c -2.2272,0 -3.9262,-0.6332 -4.525,-3.35 -0.3792,-1.9032 0.4518,-3.0432 2.025,-3.15 l -0.175,-3.275 4.35,0 1.375,6.425 c 0.5916,2.7168 -0.8768,3.35 -3.05,3.35 z"
       id="claim" /></g><metadata
     id="metadata3471"><rdf:RDF><cc:Work
         rdf:about=""><dc:title></dc:title></cc:Work></rdf:RDF></metadata></svg>